<svg width="1303" height="840" viewBox="0 0 1303 840" fill="none" xmlns="http://www.w3.org/2000/svg">
<g clip-path="url(#clip0_0_1)">
<path opacity="0.1" d="M724.494 864.112C892.372 864.112 1028.46 845.702 1028.46 822.992C1028.46 800.282 892.372 781.872 724.494 781.872C556.616 781.872 420.524 800.282 420.524 822.992C420.524 845.702 556.616 864.112 724.494 864.112Z" fill="#5BA515"/>
<path d="M574.014 700.572C574.014 700.572 595.014 697.212 607.614 712.052C607.614 712.052 598.374 719.332 578.494 709.252L574.014 700.572Z" fill="#5BA515"/>
<path d="M571.774 700.242C571.774 700.242 558.374 716.822 564.944 735.092C564.944 735.092 575.864 730.722 577.054 708.462L571.774 700.242Z" fill="#5BA515"/>
<path d="M559.774 673.132C559.774 673.132 568.174 657.732 601.774 679.292C601.774 679.292 597.294 689.652 582.454 688.812C567.614 687.972 563.644 681.252 559.774 673.132Z" fill="#5BA515"/>
<path d="M557.564 672.022C557.564 672.022 540.134 670.022 538.444 709.922C538.444 709.922 549.494 712.222 557.344 699.592C565.194 686.962 561.944 679.902 557.564 672.022Z" fill="#5BA515"/>
<path d="M547.404 640.202C547.404 640.202 557.204 613.032 592.774 632.352C592.774 632.352 584.654 657.282 551.044 649.442L547.404 640.202Z" fill="#5BA515"/>
<path d="M536.484 599.592C536.484 599.592 554.964 572.152 587.734 597.592C587.734 597.592 576.254 623.352 539.284 609.352L536.484 599.592Z" fill="#5BA515"/>
<path d="M532.564 560.952C532.564 560.952 554.124 535.752 586.564 560.952C586.564 560.952 566.114 583.072 532.564 567.392V560.952Z" fill="#5BA515"/>
<path d="M529.204 523.432C529.204 523.432 551.044 497.102 582.134 522.032C582.134 522.032 557.484 545.272 529.204 529.592V523.432Z" fill="#5BA515"/>
<path d="M531.164 490.102C531.164 490.102 554.164 456.222 583.254 479.182C583.254 479.182 558.604 508.312 531.164 496.542V490.102Z" fill="#5BA515"/>
<path d="M536.484 451.182C536.484 451.182 560.844 417.582 589.134 443.342C589.134 443.342 560.284 472.462 536.484 457.342V451.182Z" fill="#5BA515"/>
<path d="M544.614 416.392C544.614 416.392 573.444 384.822 598.614 397.392C598.614 397.392 568.554 430.922 543.354 424.762L544.614 416.392Z" fill="#5BA515"/>
<path d="M554.684 383.422C554.684 383.422 588.014 344.772 607.334 357.652C607.334 357.652 582.814 387.652 552.334 390.702L554.684 383.422Z" fill="#5BA515"/>
<path d="M569.234 345.162C569.234 345.162 598.374 313.582 619.654 321.422C619.654 321.422 594.734 354.192 565.324 355.032L569.234 345.162Z" fill="#5BA515"/>
<path d="M582.414 309.382C582.414 309.382 614.614 279.142 628.614 284.462C628.614 284.462 605.374 318.062 581.014 316.102L582.414 309.382Z" fill="#046915"/>
<path d="M595.294 276.342C595.294 276.342 623.014 240.222 638.134 243.022C638.134 243.022 621.334 275.222 595.294 280.022V276.342Z" fill="#38D39F"/>
<path d="M609.264 231.822C609.264 231.822 633.774 204.122 647.004 204.192C647.004 204.192 627.664 241.192 608.264 240.852L609.264 231.822Z" fill="#046915"/>
<path d="M617.554 202.132L641.214 144.452C641.214 144.452 642.404 196.592 614.534 212.832L617.554 202.132Z" fill="#5BA515"/>
<path d="M627.154 138.522C627.154 138.522 631.074 90.3619 628.554 86.4419C628.554 86.4419 645.484 126.442 626.994 159.802L627.154 138.522Z" fill="#5BA515"/>
<path d="M546.494 639.552C546.494 639.552 521.944 624.342 506.064 661.552C506.064 661.552 527.904 676.052 549.374 649.042L546.494 639.552Z" fill="#5BA515"/>
<path d="M535.704 598.042C535.704 598.042 505.604 584.312 490.994 623.162C490.994 623.162 514.254 639.162 538.444 607.862L535.704 598.042Z" fill="#5BA515"/>
<path d="M531.164 563.262C531.164 563.262 509.604 538.062 477.164 563.262C477.164 563.262 497.604 585.382 531.164 569.702V563.262Z" fill="#5BA515"/>
<path d="M528.474 523.432C528.474 523.432 506.624 497.102 475.544 522.032C475.544 522.032 500.184 545.272 528.474 529.592V523.432Z" fill="#5BA515"/>
<path d="M531.164 491.062C531.164 491.062 515.844 453.112 482.544 469.432C482.544 469.432 500.544 503.092 529.814 497.362L531.164 491.062Z" fill="#5BA515"/>
<path d="M538.414 450.992C538.414 450.992 523.194 412.382 489.414 430.282C489.414 430.282 510.094 465.672 536.914 456.962L538.414 450.992Z" fill="#5BA515"/>
<path d="M547.854 416.592C547.854 416.592 541.854 374.252 513.904 370.462C513.904 370.462 519.834 415.102 544.124 424.212L547.854 416.592Z" fill="#5BA515"/>
<path d="M555.404 383.492C555.404 383.492 553.054 332.492 529.904 330.722C529.904 330.722 530.684 369.422 552.794 390.722L555.404 383.492Z" fill="#5BA515"/>
<path d="M571.644 343.702C571.644 343.702 564.734 301.302 542.644 296.112C542.644 296.112 545.384 337.182 569.454 354.112L571.644 343.702Z" fill="#5BA515"/>
<path d="M585.034 309.692C585.034 309.692 584.794 265.512 571.294 259.022C571.294 259.022 562.924 299.022 581.124 315.332L585.034 309.692Z" fill="#5BA515"/>
<path d="M596.324 275.822C596.324 275.822 594.424 230.322 580.454 223.912C580.454 223.912 575.664 259.912 594.224 278.792L596.324 275.822Z" fill="#5BA515"/>
<path d="M611.224 235.422C611.224 235.422 611.134 198.422 601.154 189.742C601.154 189.742 591.234 230.282 606.014 242.862L611.224 235.422Z" fill="#5BA515"/>
<path d="M616.374 200.312L606.674 138.722C606.674 138.722 593.474 189.192 616.834 211.422L616.374 200.312Z" fill="#5BA515"/>
<path d="M618.274 139.102C618.274 139.102 593.344 97.7121 593.864 93.1021C593.864 93.1021 596.504 136.502 627.864 158.102L618.274 139.102Z" fill="#5BA515"/>
<path d="M621.194 126.882C621.194 126.882 597.674 68.072 587.034 63.312C587.034 63.312 620.634 80.392 623.154 125.202L621.194 126.882Z" fill="#5BA515"/>
<path d="M608.134 241.172L606.524 240.682C626.374 175.952 631.334 134.682 620.474 124.342L621.634 123.122C633.134 134.032 628.474 174.822 608.134 241.172Z" fill="#444053"/>
<path d="M553.474 392.692L551.104 391.852C553.204 385.922 555.474 379.902 557.854 373.962C578.574 322.322 596.214 274.292 607.524 237.412L609.594 236.412C598.264 273.362 580.944 323.242 560.194 374.942C557.824 380.822 555.564 386.822 553.474 392.692Z" fill="#444053"/>
<path d="M603.564 749.022C603.244 748.662 571.064 712.442 548.644 650.582C535.497 614.378 528.173 576.319 526.944 537.822C525.404 489.692 535.504 435.952 552.804 387.142L554.684 389.342C515.854 498.902 531.284 592.792 551.744 649.342C573.944 710.632 605.744 746.472 606.064 746.822L603.564 749.022Z" fill="#444053"/>
<path d="M890.374 331.822H886.094C884.829 331.822 883.804 332.847 883.804 334.112V402.552C883.804 403.817 884.829 404.842 886.094 404.842H890.374C891.639 404.842 892.664 403.817 892.664 402.552V334.112C892.664 332.847 891.639 331.822 890.374 331.822Z" fill="#3A3768"/>
<path d="M592.054 274.612H591.664C590.399 274.612 589.374 275.637 589.374 276.902V296.362C589.374 297.627 590.399 298.652 591.664 298.652H592.054C593.319 298.652 594.344 297.627 594.344 296.362V276.902C594.344 275.637 593.319 274.612 592.054 274.612Z" fill="#3A3768"/>
<path d="M592.504 318.632H591.484C590.219 318.632 589.194 319.657 589.194 320.922V358.182C589.194 359.447 590.219 360.472 591.484 360.472H592.504C593.769 360.472 594.794 359.447 594.794 358.182V320.922C594.794 319.657 593.769 318.632 592.504 318.632Z" fill="#3A3768"/>
<path d="M592.324 375.112H591.574C590.309 375.112 589.284 376.137 589.284 377.402V415.022C589.284 416.287 590.309 417.312 591.574 417.312H592.324C593.589 417.312 594.614 416.287 594.614 415.022V377.402C594.614 376.137 593.589 375.112 592.324 375.112Z" fill="#3A3768"/>
<path d="M849.594 195.172H631.174C609.64 195.172 592.184 212.628 592.184 234.162V758.572C592.184 780.106 609.64 797.562 631.174 797.562H849.594C871.128 797.562 888.584 780.106 888.584 758.572V234.162C888.584 212.628 871.128 195.172 849.594 195.172Z" fill="#3A3768"/>
<path d="M846.774 210.822H812.774V214.912C812.774 217.458 812.272 219.979 811.298 222.331C810.323 224.683 808.895 226.82 807.094 228.619C805.294 230.419 803.156 231.846 800.803 232.82C798.451 233.793 795.93 234.293 793.384 234.292H685.254C682.708 234.293 680.187 233.793 677.835 232.82C675.482 231.846 673.344 230.419 671.544 228.619C669.743 226.82 668.315 224.683 667.34 222.331C666.366 219.979 665.864 217.458 665.864 214.912V210.822H634.034C627.791 210.822 621.803 213.302 617.389 217.717C612.974 222.131 610.494 228.119 610.494 234.362V758.332C610.494 764.575 612.974 770.563 617.389 774.977C621.803 779.392 627.791 781.872 634.034 781.872H846.774C853.017 781.872 859.005 779.392 863.419 774.977C867.834 770.563 870.314 764.575 870.314 758.332V234.402C870.319 231.307 869.714 228.242 868.534 225.381C867.353 222.521 865.62 219.921 863.433 217.731C861.247 215.541 858.65 213.803 855.792 212.618C852.933 211.432 849.869 210.822 846.774 210.822Z" fill="#5BA515"/>
<path d="M749.314 213.162H715.664C713.527 213.162 711.794 214.895 711.794 217.032V217.692C711.794 219.829 713.527 221.562 715.664 221.562H749.314C751.451 221.562 753.184 219.829 753.184 217.692V217.032C753.184 214.895 751.451 213.162 749.314 213.162Z" fill="#E6E8EC"/>
<path d="M764.214 222.132C766.848 222.132 768.984 219.996 768.984 217.362C768.984 214.728 766.848 212.592 764.214 212.592C761.58 212.592 759.444 214.728 759.444 217.362C759.444 219.996 761.58 222.132 764.214 222.132Z" fill="#E6E8EC"/>
<path d="M991.204 168.752C991.204 168.752 907.004 163.672 916.924 222.672C916.924 222.672 914.924 233.102 924.404 237.832C924.404 237.832 924.554 233.462 933.044 234.952C936.067 235.453 939.137 235.601 942.194 235.392C946.318 235.121 950.241 233.517 953.374 230.822C953.374 230.822 977.044 221.042 986.244 182.362C986.244 182.362 993.054 173.922 992.784 171.752L978.574 177.822C978.574 177.822 983.434 188.072 979.574 196.592C979.574 196.592 979.114 178.192 976.384 178.592C975.834 178.672 969.004 182.142 969.004 182.142C969.004 182.142 977.354 199.992 971.054 212.972C971.054 212.972 973.444 190.972 966.394 183.432L956.394 189.272C956.394 189.272 966.154 207.712 959.534 222.762C959.534 222.762 961.234 199.682 954.284 190.692L945.224 197.762C945.224 197.762 954.394 215.932 948.804 228.412C948.804 228.412 948.074 201.552 943.264 199.522C943.264 199.522 935.334 206.522 934.124 209.382C934.124 209.382 940.404 222.582 936.504 229.542C936.504 229.542 934.114 211.642 932.154 211.542C932.154 211.542 924.254 223.402 923.434 231.542C923.434 231.542 923.774 219.452 930.244 210.422C930.244 210.422 922.604 211.732 918.144 216.682C918.144 216.682 919.374 208.302 932.194 207.562C932.194 207.562 938.724 198.562 940.464 198.022C940.464 198.022 927.724 196.952 919.994 200.382C919.994 200.382 926.794 192.472 942.804 196.072L951.754 188.762C951.754 188.762 934.974 186.472 927.854 189.002C927.854 189.002 936.044 182.002 954.164 187.102L963.904 181.282C963.904 181.282 949.594 178.202 941.074 179.282C941.074 179.282 950.074 174.432 966.764 179.692L973.764 176.562C973.764 176.562 963.284 174.502 960.214 174.172C957.144 173.842 956.984 173.002 956.984 173.002C963.624 171.895 970.44 172.653 976.674 175.192C976.674 175.192 991.454 169.682 991.204 168.752Z" fill="#5BA515"/>
<path d="M904.834 142.512C904.834 142.512 866.834 140.222 871.274 166.882C871.274 166.882 870.384 171.592 874.654 173.732C874.654 173.732 874.724 171.732 878.564 172.422C879.928 172.651 881.314 172.719 882.694 172.622C884.559 172.499 886.333 171.768 887.744 170.542C887.744 170.542 898.444 166.122 902.604 148.642C902.604 148.642 905.674 144.832 905.554 143.852L899.134 146.592C899.134 146.592 901.324 151.222 899.604 155.072C899.604 155.072 899.394 146.762 898.164 146.952C897.914 146.952 894.824 148.562 894.824 148.562C894.824 148.562 898.604 156.632 895.754 162.492C895.754 162.492 896.834 152.552 893.644 149.142L889.124 151.822C889.124 151.822 893.534 160.152 890.544 166.952C890.544 166.952 891.314 156.522 888.174 152.462L884.084 155.662C884.084 155.662 888.224 163.872 885.704 169.512C885.704 169.512 885.364 157.372 883.194 156.452C883.194 156.452 879.614 159.612 879.064 160.912C879.064 160.912 881.904 166.912 880.144 170.022C880.144 170.022 879.064 161.932 878.144 161.892C878.144 161.892 874.574 167.252 874.204 170.892C874.383 167.498 875.444 164.21 877.284 161.352C875.224 161.742 873.323 162.726 871.814 164.182C871.814 164.182 872.374 160.392 878.164 160.062C878.164 160.062 881.164 155.992 881.904 155.742C881.904 155.742 876.144 155.262 872.654 156.812C872.654 156.812 875.724 153.242 882.954 154.862L886.954 151.562C886.954 151.562 879.364 150.562 876.154 151.672C876.154 151.672 879.854 148.512 888.044 150.812L892.444 148.182C892.444 148.182 885.974 146.792 882.124 147.292C882.124 147.292 886.194 145.102 893.734 147.472L896.884 146.062C896.884 146.062 892.144 145.132 890.754 144.982C889.364 144.832 889.294 144.452 889.294 144.452C892.296 143.953 895.378 144.299 898.194 145.452C898.194 145.452 904.954 142.932 904.834 142.512Z" fill="#5BA515"/>
<path opacity="0.1" d="M843.864 268.182H636.914V707.422H843.864V268.182Z" fill="#A1E164"/>
<path d="M837.524 830.042C837.524 830.042 832.644 818.682 830.464 813.442C829.234 810.442 827.154 809.942 825.564 810.012L825.654 809.012L826.044 804.282L826.124 803.282C829.894 802.492 833.124 801.872 833.124 801.872L830.774 680.552C830.774 680.552 829.774 679.272 827.354 671.552C826.154 667.702 820.354 662.972 814.934 659.202C814.084 658.612 813.254 658.052 812.434 657.512C814.407 655.859 816.481 654.329 818.644 652.932C821.724 651.142 822.744 640.932 822.744 640.932L822.234 641.932C822.744 640.932 822.234 614.862 822.234 614.862L820.434 587.802C820.434 587.802 819.154 555.632 809.154 547.202C799.154 538.772 786.524 535.822 786.524 535.822L779.524 534.022L766.624 530.712C766.264 530.122 765.914 529.502 765.624 528.852C765.494 528.602 765.374 528.342 765.254 528.082C769.195 525.292 772.41 521.597 774.628 517.308C776.847 513.019 778.004 508.261 778.004 503.432C778.006 501.811 777.876 500.192 777.614 498.592C777.614 498.292 777.504 497.982 777.444 497.682C778.504 496.956 779.507 496.151 780.444 495.272C781.972 494.055 783.22 492.524 784.104 490.782C784.243 490.441 784.356 490.09 784.444 489.732C784.444 489.632 784.444 489.532 784.504 489.422C784.564 489.312 784.594 488.892 784.624 488.622C784.624 488.522 784.624 488.422 784.624 488.322C784.624 488.032 784.624 487.732 784.624 487.442C784.624 487.372 784.624 487.302 784.624 487.222C784.624 486.892 784.574 486.562 784.524 486.222C784.529 486.202 784.529 486.182 784.524 486.162C784.341 485.001 784.039 483.862 783.624 482.762C782.624 480.182 781.324 477.762 780.854 475.012C780.274 471.762 780.944 468.212 779.394 465.292C778.75 464.188 777.871 463.24 776.818 462.515C775.765 461.791 774.565 461.308 773.304 461.102C770.766 460.711 768.169 461.008 765.784 461.962C764.618 462.517 763.361 462.855 762.074 462.962C761.138 462.908 760.22 462.684 759.364 462.302C756.395 461.137 753.575 459.623 750.964 457.792C749.085 456.309 747.077 454.998 744.964 453.872C743.903 453.318 742.732 453.006 741.535 452.957C740.339 452.909 739.147 453.126 738.044 453.592C734.344 455.472 733.644 460.712 730.204 463.022C727.834 464.622 724.744 464.462 721.884 464.562C719.024 464.662 715.784 465.372 714.374 467.852C713.374 469.572 713.614 471.622 713.804 473.632L713.864 474.312C713.864 474.552 713.864 474.802 713.924 475.042C714.082 477.613 713.697 480.189 712.794 482.602C711.414 486.262 708.794 489.872 708.884 493.602C708.892 494.196 708.969 494.786 709.114 495.362C709.192 495.65 709.286 495.934 709.394 496.212C709.945 497.448 710.562 498.653 711.244 499.822L711.334 499.982C711.404 500.122 711.474 500.262 711.534 500.402C711.594 500.542 711.714 500.782 711.784 500.972C711.854 501.162 711.864 501.162 711.894 501.252C711.924 501.342 712.024 501.622 712.074 501.812C712.239 502.377 712.31 502.964 712.284 503.552C712.167 504.31 712.103 505.075 712.094 505.842C712.097 506.226 712.232 506.597 712.476 506.894C712.72 507.19 713.058 507.394 713.434 507.472C713.846 507.462 714.248 507.337 714.594 507.112C715.491 506.601 716.344 506.015 717.144 505.362C717.144 505.682 717.144 506.002 717.204 506.362C717.9 513.519 721.123 520.195 726.294 525.192C726.294 525.502 726.294 525.822 726.224 526.192C726.154 526.562 726.174 526.912 726.154 527.282L714.954 530.802C714.954 530.802 715.014 531.002 715.134 531.342L713.954 531.812C708.144 534.162 701.674 537.082 698.054 539.732C696.454 540.892 694.994 541.842 693.684 542.632C688.928 545.543 685.281 549.96 683.324 555.182L683.174 555.562C682.174 557.852 677.274 573.432 677.274 573.432C677.274 573.432 673.684 582.112 673.164 587.732C673.164 587.732 667.264 606.362 668.804 618.622C668.804 618.622 664.184 636.242 665.984 639.042C665.984 639.042 664.144 646.622 672.224 654.252C671.634 654.612 670.994 655.002 670.324 655.432C664.064 659.372 655.034 665.762 653.494 670.692C651.104 678.362 650.074 679.692 650.074 679.692L647.654 800.822C647.654 800.822 650.884 801.442 654.654 802.222L654.734 803.222L655.124 807.942L655.214 808.942C653.624 808.872 651.544 809.422 650.314 812.382C648.124 817.612 643.314 828.962 643.314 828.962C643.314 828.962 632.544 838.962 639.074 848.242C639.362 848.666 639.697 849.055 640.074 849.402C644.764 853.662 654.764 850.932 661.874 848.152C665.487 846.61 668.602 844.097 670.874 840.892C671.16 840.517 671.522 840.205 671.935 839.976C672.348 839.747 672.804 839.606 673.274 839.562C674.904 839.299 676.442 838.628 677.744 837.612C678.528 837.04 679.161 836.286 679.59 835.415C680.018 834.544 680.229 833.582 680.204 832.612C680.199 832.562 680.199 832.512 680.204 832.462L679.574 818.232C679.574 818.232 678.804 808.292 676.354 808.932L675.724 809.082L675.554 808.082L675.224 806.152L675.054 805.152H676.414C676.414 805.152 676.754 793.912 680.864 785.072C684.974 776.232 687.674 704.822 687.674 704.822C687.674 704.822 738.544 705.652 740.244 700.882C741.244 700.882 742.334 700.882 743.374 700.812C745.084 705.582 793.094 705.812 793.094 705.812C793.094 705.812 795.824 777.302 799.924 786.152C800.789 788.048 801.508 790.007 802.074 792.012C803.364 796.649 804.139 801.415 804.384 806.222H805.744L805.564 807.222L805.234 809.142L805.064 810.142L804.414 809.992C801.984 809.362 801.214 819.302 801.214 819.302L800.564 833.622C800.513 834.588 800.704 835.551 801.12 836.424C801.536 837.297 802.163 838.052 802.944 838.622C804.268 839.661 805.833 840.349 807.494 840.622C807.965 840.66 808.422 840.797 808.835 841.025C809.249 841.252 809.61 841.565 809.894 841.942C812.168 845.145 815.282 847.657 818.894 849.202C826.574 852.202 837.614 855.132 841.714 849.302C848.294 840.002 837.524 830.042 837.524 830.042ZM708.224 651.702H708.344H708.224ZM788.574 610.822C788.574 610.822 789.864 615.672 792.164 618.222C794.464 620.772 793.324 636.612 793.324 636.612C792.419 636.669 791.522 636.813 790.644 637.042C788.874 626.512 787.244 614.822 788.574 610.822Z" fill="url(#paint0_linear_0_1)"/>
<path d="M677.964 810.432L657.854 812.432L657.294 805.702L656.904 801.072L656.354 794.302L675.354 795.302L676.864 803.992L677.184 805.882H677.194L677.964 810.432Z" fill="#8E6F7F"/>
<path d="M824.414 795.312L823.864 802.072L823.484 806.702L822.914 813.432L802.794 811.432L803.594 806.882L803.904 805.002L805.414 796.312L824.414 795.312Z" fill="#8E6F7F"/>
<path d="M803.104 697.922L743.304 700.732C740.584 700.865 737.864 700.865 735.144 700.732L678.014 697.932V652.672H803.104V697.922Z" fill="#5F5570"/>
<path opacity="0.1" d="M803.104 697.922L743.304 700.732C740.584 700.865 737.864 700.865 735.144 700.732L678.014 697.932V652.672H803.104V697.922Z" fill="black"/>
<path d="M726.524 530.732C726.524 530.732 706.604 537.422 699.104 542.922C697.544 544.062 696.104 545.002 694.844 545.772C690.212 548.628 686.667 552.95 684.774 558.052C684.724 558.192 684.674 558.312 684.624 558.422C683.624 560.672 678.874 575.922 678.874 575.922C678.874 575.922 675.374 584.422 674.874 589.922C674.374 595.422 703.374 610.172 703.374 610.172C703.374 610.172 689.374 640.672 695.624 648.422C701.874 656.172 793.124 659.922 791.124 648.422C789.124 636.922 785.624 617.922 787.374 612.672L818.374 590.172C818.374 590.172 817.124 558.672 807.374 550.422C797.624 542.172 785.374 539.172 785.374 539.172L765.964 534.172C765.964 534.172 759.124 551.172 751.624 553.422C744.124 555.672 727.694 545.282 726.524 530.732Z" fill="#EAEAF2"/>
<path opacity="0.1" d="M754.504 559.362C754.504 559.362 746.044 566.422 741.604 559.362C741.604 559.362 737.604 571.302 741.604 575.302L741.454 576.112L740.744 579.672L731.484 656.672L739.104 669.822L752.974 652.422L751.854 580.422L751.354 576.292L751.234 575.292H753.604C753.604 575.292 759.894 564.422 754.504 559.362Z" fill="black"/>
<path opacity="0.1" d="M756.504 559.362C756.504 559.362 748.044 566.422 743.604 559.362C743.604 559.362 739.604 571.302 743.604 575.302L743.454 576.112L742.744 579.672L733.484 656.672L741.104 669.822L754.974 652.422L753.854 580.422L753.354 576.292L753.234 575.292H755.604C755.604 575.292 761.894 564.422 756.504 559.362Z" fill="black"/>
<path d="M753.974 651.432L740.104 668.802L732.464 655.722L741.734 578.682L742.444 575.122L742.604 574.302L743.854 571.062L752.234 574.302L752.354 575.302L752.854 579.432L753.974 651.432Z" fill="#BC8487"/>
<path opacity="0.1" d="M676.864 803.982C672.549 803.955 668.246 803.516 664.014 802.672C661.924 802.152 659.304 801.572 656.914 801.062L656.354 794.292L675.354 795.292L676.864 803.982Z" fill="black"/>
<path d="M740.254 700.822C738.594 705.492 689.014 704.672 689.014 704.672C689.014 704.672 686.354 774.672 682.354 783.342C678.354 792.012 678.014 803.002 678.014 803.002C678.014 803.002 669.354 803.002 664.014 801.672C658.674 800.342 650.014 798.672 650.014 798.672L652.354 679.922C652.354 679.922 653.354 678.672 655.684 671.162C657.184 666.332 665.984 660.072 672.074 656.162C675.474 654.022 678.014 652.622 678.014 652.622L707.594 653.822L725.854 654.562C725.854 654.562 741.924 696.152 740.254 700.822Z" fill="#5F5570"/>
<path opacity="0.1" d="M677.974 810.422L657.854 812.422L657.284 805.692C658.038 805.713 658.781 805.876 659.474 806.172C663.144 808.812 673.634 806.712 677.184 805.872L677.974 810.422Z" fill="black"/>
<path d="M681.774 829.872C681.798 830.821 681.591 831.762 681.171 832.614C680.751 833.465 680.131 834.203 679.364 834.762C678.098 835.755 676.602 836.412 675.014 836.672C674.556 836.711 674.111 836.848 673.709 837.072C673.308 837.296 672.958 837.603 672.684 837.972C670.461 841.107 667.416 843.567 663.884 845.082C656.954 847.802 647.204 850.472 642.634 846.302C642.257 845.967 641.921 845.587 641.634 845.172C635.264 836.052 645.764 826.292 645.764 826.292C645.764 826.292 650.504 815.172 652.634 810.052C652.864 809.388 653.231 808.78 653.713 808.267C654.194 807.754 654.777 807.349 655.425 807.077C656.074 806.805 656.772 806.673 657.475 806.69C658.178 806.706 658.869 806.87 659.504 807.172C663.504 810.052 675.634 807.292 678.004 806.682C680.374 806.072 681.134 815.792 681.134 815.792L681.774 829.722C681.769 829.772 681.769 829.822 681.774 829.872Z" fill="#BC8487"/>
<path opacity="0.1" d="M824.424 795.302L823.864 802.062C821.474 802.572 818.864 803.152 816.754 803.672C812.526 804.518 808.226 804.96 803.914 804.992L805.424 796.302L824.424 795.302Z" fill="black"/>
<path d="M830.774 799.672C830.774 799.672 822.114 801.342 816.774 802.672C811.434 804.002 802.774 804.002 802.774 804.002C802.774 804.002 802.444 793.002 798.444 784.342C794.444 775.682 791.774 705.672 791.774 705.672C791.774 705.672 744.994 705.402 743.324 700.732C741.654 696.062 763.714 655.732 763.714 655.732L777.164 655.032L802.774 653.672C802.774 653.672 807.774 656.392 813.014 660.062C818.254 663.732 823.944 668.392 825.114 672.162C827.444 679.672 828.444 680.922 828.444 680.922L830.774 799.672Z" fill="#5F5570"/>
<path opacity="0.1" d="M823.484 806.692L822.924 813.422L802.794 811.422L803.594 806.872C807.144 807.722 817.594 809.812 821.294 807.172C821.987 806.876 822.73 806.713 823.484 806.692Z" fill="black"/>
<path d="M821.294 808.172C821.93 807.869 822.622 807.703 823.326 807.686C824.03 807.669 824.729 807.8 825.379 808.072C826.028 808.344 826.613 808.75 827.095 809.263C827.576 809.777 827.944 810.386 828.174 811.052C830.294 816.172 835.044 827.302 835.044 827.302C835.044 827.302 845.544 837.052 839.174 846.172C835.174 851.892 824.414 849.022 816.934 846.082C813.399 844.573 810.352 842.112 808.134 838.972C807.858 838.602 807.507 838.295 807.104 838.071C806.7 837.847 806.254 837.711 805.794 837.672C804.17 837.389 802.643 836.701 801.354 835.672C800.597 835.112 799.99 834.373 799.587 833.522C799.184 832.67 798.998 831.733 799.044 830.792L799.674 816.792C799.674 816.792 800.424 807.062 802.794 807.672C805.164 808.282 817.294 811.052 821.294 808.172Z" fill="#BC8487"/>
<path d="M769.604 539.172L749.414 560.572L748.854 561.172L748.124 560.742C743.904 558.242 722.794 545.502 724.604 541.672C725.604 539.492 726.194 534.952 726.504 531.042C726.504 530.572 726.564 530.112 726.604 529.662C726.804 526.572 726.854 524.172 726.854 524.172C726.854 524.172 764.854 517.672 763.354 524.172C762.744 526.802 763.654 529.762 764.944 532.352C765.324 533.102 765.744 533.812 766.154 534.482C767.164 536.144 768.318 537.713 769.604 539.172Z" fill="#FFC4D0"/>
<path opacity="0.1" d="M764.944 532.352C759.275 536.53 752.304 538.553 745.279 538.06C738.254 537.568 731.634 534.59 726.604 529.662C726.804 526.572 726.854 524.172 726.854 524.172C726.854 524.172 764.854 517.672 763.354 524.172C762.774 526.822 763.654 529.762 764.944 532.352Z" fill="black"/>
<path d="M777.014 507.462C777.124 515.159 774.238 522.598 768.965 528.206C763.693 533.815 756.447 537.155 748.758 537.521C741.069 537.887 733.538 535.251 727.757 530.168C721.976 525.085 718.396 517.955 717.774 510.282C717.694 509.349 717.654 508.409 717.654 507.462C717.582 503.521 718.295 499.604 719.754 495.942C721.212 492.279 723.386 488.944 726.147 486.131C728.909 483.318 732.204 481.084 735.839 479.558C739.474 478.033 743.377 477.247 747.319 477.247C751.261 477.247 755.164 478.033 758.799 479.558C762.434 481.084 765.729 483.318 768.491 486.131C771.252 488.944 773.426 492.279 774.884 495.942C776.343 499.604 777.056 503.521 776.984 507.462H777.014Z" fill="#FFC4D0"/>
<path opacity="0.1" d="M776.644 502.722C775.872 503.351 774.976 503.81 774.015 504.071C773.053 504.331 772.048 504.386 771.064 504.232C766.484 503.232 764.914 496.232 760.234 495.752C755.554 495.272 752.444 501.752 747.704 501.622C745.704 501.572 743.904 500.262 742.064 499.352C738.844 497.762 733.544 496.792 730.064 497.992C724.834 499.782 723.064 504.622 719.724 508.472C719.153 509.127 718.528 509.733 717.854 510.282C717.774 509.349 717.734 508.409 717.734 507.462C717.666 499.958 720.444 492.707 725.508 487.17C730.572 481.632 737.547 478.219 745.027 477.618C752.507 477.017 759.937 479.273 765.82 483.931C771.703 488.589 775.603 495.304 776.734 502.722H776.644Z" fill="black"/>
<path d="M742.064 498.362C743.904 499.262 745.664 500.582 747.704 500.632C752.434 500.752 755.524 494.242 760.224 494.752C764.924 495.262 766.474 502.202 771.074 503.232C774.164 503.932 777.074 501.622 779.384 499.472C780.877 498.283 782.095 496.786 782.954 495.082C783.954 492.602 783.434 489.742 782.504 487.222C781.574 484.702 780.264 482.282 779.804 479.632C779.244 476.452 779.894 472.972 778.384 470.112C777.759 469.032 776.902 468.103 775.875 467.394C774.848 466.685 773.676 466.213 772.444 466.012C769.97 465.628 767.439 465.915 765.114 466.842C763.981 467.392 762.758 467.731 761.504 467.842C760.589 467.786 759.691 467.566 758.854 467.192C755.962 466.052 753.216 464.572 750.674 462.782C748.852 461.327 746.9 460.042 744.844 458.942C743.811 458.4 742.67 458.094 741.504 458.047C740.339 458.001 739.177 458.214 738.104 458.672C734.504 460.512 733.814 465.672 730.464 467.902C728.154 469.462 725.144 469.302 722.364 469.412C719.584 469.522 716.364 470.192 715.044 472.622C713.864 474.712 714.454 477.282 714.604 479.672C714.754 482.189 714.375 484.71 713.494 487.072C711.944 491.212 708.794 495.292 709.914 499.572C710.644 502.382 713.164 504.712 713.014 507.572C712.896 508.31 712.833 509.055 712.824 509.802C712.827 510.178 712.959 510.542 713.197 510.833C713.436 511.124 713.766 511.325 714.134 511.402C714.535 511.397 714.925 511.272 715.254 511.042C716.917 510.112 718.408 508.905 719.664 507.472C723.044 503.612 724.794 498.782 730.024 496.992C733.554 495.822 738.844 496.762 742.064 498.362Z" fill="#8E6F7F"/>
<path d="M776.474 672.922L771.074 674.392L758.604 677.822C755.718 679.972 752.47 681.588 749.014 682.592C741.384 684.522 736.454 680.322 732.354 673.822C730.704 671.222 731.534 669.142 733.694 667.512C738.894 663.582 751.754 662.302 755.694 662.822C758.282 663.033 760.882 662.628 763.284 661.642C764.989 661.022 766.632 660.245 768.194 659.322L776.474 672.922Z" fill="#FFC4D0"/>
<path opacity="0.1" d="M776.474 672.922L771.074 674.392C769.524 669.722 766.974 663.862 763.324 661.612C765.029 660.992 766.673 660.215 768.234 659.292L776.474 672.922Z" fill="black"/>
<path opacity="0.1" d="M812.994 660.062C810.754 661.872 808.854 663.522 808.854 663.522C808.854 663.522 782.854 671.672 777.854 681.922C777.854 681.922 773.854 661.922 765.354 661.672C765.354 661.672 774.504 658.082 777.144 655.012L802.774 653.672C802.774 653.672 807.774 656.392 812.994 660.062Z" fill="black"/>
<path d="M812.604 581.672L818.354 590.172L820.104 616.672C820.104 616.672 820.604 642.172 820.104 643.172L820.604 642.172C820.604 642.172 819.604 652.172 816.604 653.922C813.604 655.672 806.854 661.522 806.854 661.522C806.854 661.522 780.854 669.672 775.854 679.922C775.854 679.922 771.854 659.922 763.354 659.672C763.354 659.672 776.104 654.672 775.854 651.422C775.854 651.422 785.604 642.672 786.354 640.422C787.104 638.172 791.974 637.922 791.974 637.922C791.974 637.922 793.104 622.422 790.854 619.922C788.604 617.422 787.354 612.672 787.354 612.672L812.604 581.672Z" fill="#EAEAF2"/>
<path opacity="0.1" d="M749.014 682.562C741.384 684.492 736.454 680.292 732.354 673.792C730.704 671.192 731.534 669.112 733.694 667.482L734.474 667.792C734.474 667.792 748.224 673.752 749.014 682.562Z" fill="black"/>
<path d="M745.854 690.552C736.854 703.052 720.104 685.672 718.854 682.172C718.404 680.902 716.694 679.772 714.724 678.862C712.225 677.77 709.63 676.91 706.974 676.292L721.854 664.172L724.704 665.312L733.474 668.822C733.474 668.822 754.854 678.052 745.854 690.552Z" fill="#FFC4D0"/>
<path opacity="0.1" d="M724.704 665.312C716.504 669.212 714.754 674.822 714.704 678.862C712.205 677.77 709.61 676.91 706.954 676.292L721.834 664.172L724.704 665.312Z" fill="black"/>
<path opacity="0.1" d="M711.604 686.922C711.604 686.922 687.604 667.922 676.104 659.672C674.665 658.647 673.326 657.488 672.104 656.212C675.504 654.072 678.044 652.672 678.044 652.672L707.624 653.872C708.414 655.242 708.884 656.172 708.884 656.172L724.884 666.672C705.604 672.922 711.604 686.922 711.604 686.922Z" fill="black"/>
<path d="M679.604 587.172L674.854 589.922C674.854 589.922 669.104 608.172 670.604 620.172C670.604 620.172 666.104 637.422 667.854 640.172C667.854 640.172 665.604 649.422 677.104 657.672C688.604 665.922 712.604 684.922 712.604 684.922C712.604 684.922 706.604 670.922 725.854 664.672L709.854 654.172C709.854 654.172 704.484 643.512 699.354 641.172C699.354 641.172 695.354 637.172 697.854 634.422C700.354 631.672 702.354 628.672 702.354 625.922C702.354 623.172 703.354 610.172 703.354 610.172L706.354 596.172L679.604 587.172Z" fill="#EAEAF2"/>
<path opacity="0.1" d="M752.354 575.292H742.604C742.545 575.237 742.492 575.177 742.444 575.112L742.604 574.292L743.854 571.052L752.234 574.292L752.354 575.292Z" fill="black"/>
<path d="M755.504 558.362C755.504 558.362 747.044 565.422 742.604 558.362C742.604 558.362 738.604 570.302 742.604 574.302H754.604C754.604 574.302 760.894 563.422 755.504 558.362Z" fill="#BC8487"/>
<path opacity="0.1" d="M766.944 535.172L779.544 538.422C779.544 538.422 767.604 569.422 764.974 569.422L749.854 562.172L766.944 535.172Z" fill="black"/>
<path opacity="0.1" d="M769.604 539.172L749.414 560.572L748.854 561.172L748.124 560.742L765.774 533.822L766.204 534.532C767.2 536.175 768.338 537.727 769.604 539.172Z" fill="black"/>
<path d="M765.944 534.172L778.544 537.422C778.544 537.422 766.604 568.422 763.974 568.422L748.854 561.172L765.944 534.172Z" fill="#EAEAF2"/>
<path opacity="0.1" d="M725.524 531.732L714.604 535.172C714.604 535.172 725.354 567.672 728.354 569.422L747.854 562.172L725.524 531.732Z" fill="black"/>
<path opacity="0.1" d="M749.414 560.572L748.854 561.172C748.854 561.172 722.604 545.922 724.604 541.672C725.604 539.492 726.194 534.952 726.504 531.042V530.432L749.414 560.572Z" fill="black"/>
<path d="M726.524 530.732L715.604 534.172C715.604 534.172 726.354 566.672 729.354 568.422L748.854 561.172L726.524 530.732Z" fill="#EAEAF2"/>
<path opacity="0.1" d="M700.514 583.822C700.514 583.822 707.094 584.992 706.974 591.822C706.854 598.652 709.684 582.992 709.684 582.992L700.514 583.822Z" fill="black"/>
<path opacity="0.1" d="M702.014 604.822C702.014 604.822 700.184 615.152 702.014 624.492C703.844 633.832 703.684 636.992 705.104 637.492C706.524 637.992 702.014 604.822 702.014 604.822Z" fill="black"/>
<path opacity="0.1" d="M786.014 603.822C785.489 603.889 784.985 604.07 784.538 604.352C784.09 604.634 783.71 605.011 783.424 605.457C783.138 605.902 782.953 606.405 782.882 606.929C782.811 607.453 782.856 607.987 783.014 608.492C783.854 612.672 786.014 603.822 786.014 603.822Z" fill="black"/>
<path opacity="0.1" d="M671.684 638.822C671.684 638.822 693.114 636.992 696.684 640.822C700.254 644.652 671.684 638.822 671.684 638.822Z" fill="black"/>
<path opacity="0.1" d="M796.014 640.272C796.014 640.272 811.684 638.342 815.354 641.012L796.014 640.272Z" fill="black"/>
<path opacity="0.1" d="M802.354 642.822C802.354 642.822 811.684 643.152 813.854 644.322L802.354 642.822Z" fill="black"/>
<path opacity="0.1" d="M804.184 646.172C804.184 646.172 812.684 645.842 813.854 647.172L804.184 646.172Z" fill="black"/>
<path opacity="0.1" d="M684.314 693.172C684.314 693.172 691.594 696.962 690.854 700.832C690.114 704.702 684.314 693.172 684.314 693.172Z" fill="black"/>
<path opacity="0.1" d="M678.014 695.012C678.014 695.012 689.124 709.422 687.614 714.172C686.104 718.922 678.014 695.012 678.014 695.012Z" fill="black"/>
<path opacity="0.1" d="M797.104 697.402C797.104 697.402 791.604 701.932 791.754 705.672L797.104 697.402Z" fill="black"/>
<path opacity="0.1" d="M670.104 786.672C670.104 786.672 670.104 790.922 677.974 797.172L670.104 786.672Z" fill="black"/>
<path opacity="0.1" d="M809.014 776.672C809.014 776.672 808.174 785.512 800.514 790.092L809.014 776.672Z" fill="black"/>
<g opacity="0.1">
<path opacity="0.1" d="M714.604 476.632C714.604 475.942 714.484 475.232 714.424 474.532C714.297 476.059 714.343 477.596 714.564 479.112C714.632 478.287 714.646 477.459 714.604 476.632Z" fill="black"/>
<path opacity="0.1" d="M713.014 504.572C713.164 501.672 710.644 499.342 709.914 496.572C709.877 496.438 709.85 496.301 709.834 496.162C709.606 497.29 709.633 498.456 709.914 499.572C710.504 501.862 712.284 503.822 712.844 506.042C712.894 505.522 712.994 505.052 713.014 504.572Z" fill="black"/>
<path opacity="0.1" d="M782.954 492.082C782.092 493.784 780.875 495.281 779.384 496.472C777.054 498.622 774.164 500.932 771.074 500.232C766.484 499.232 764.904 492.232 760.224 491.752C755.544 491.272 752.434 497.752 747.704 497.622C745.704 497.572 743.904 496.262 742.064 495.352C738.844 493.762 733.554 492.792 730.064 493.992C724.834 495.782 723.064 500.622 719.704 504.472C718.45 505.905 716.962 507.116 715.304 508.052C714.968 508.274 714.576 508.395 714.174 508.402C713.923 508.368 713.686 508.267 713.489 508.108C713.291 507.949 713.141 507.74 713.054 507.502V507.572C712.936 508.313 712.873 509.062 712.864 509.812C712.87 510.186 713.002 510.548 713.24 510.837C713.479 511.126 713.808 511.325 714.174 511.402C714.576 511.395 714.968 511.274 715.304 511.052C716.962 510.116 718.45 508.905 719.704 507.472C723.084 503.622 724.834 498.782 730.064 496.992C733.594 495.792 738.884 496.762 742.064 498.352C743.904 499.262 745.664 500.572 747.704 500.622C752.434 500.742 755.524 494.232 760.224 494.752C764.924 495.272 766.484 502.192 771.074 503.232C774.164 503.932 777.074 501.622 779.384 499.472C780.875 498.281 782.092 496.784 782.954 495.082C783.511 493.637 783.66 492.066 783.384 490.542C783.299 491.07 783.155 491.587 782.954 492.082Z" fill="black"/>
</g>
<path opacity="0.1" d="M645.774 826.302C645.774 826.302 653.944 823.782 657.334 828.562L645.774 826.302Z" fill="black"/>
<path opacity="0.1" d="M835.044 827.302C835.044 827.302 821.514 826.512 822.044 830.172L835.044 827.302Z" fill="black"/>
<path d="M437.654 765.272C437.654 765.272 443.154 772.462 435.124 783.272C427.094 794.082 420.474 803.272 423.124 810.042C423.124 810.042 435.244 789.892 445.124 789.612C455.004 789.332 448.504 777.392 437.654 765.272Z" fill="#5BA515"/>
<path opacity="0.1" d="M437.654 765.272C438.134 765.968 438.511 766.729 438.774 767.532C448.394 778.832 453.524 789.382 444.274 789.642C435.664 789.892 425.334 805.292 422.854 809.182C422.934 809.482 423.034 809.772 423.144 810.072C423.144 810.072 435.264 789.922 445.144 789.642C455.024 789.362 448.504 777.392 437.654 765.272Z" fill="black"/>
<path d="M447.864 774.432C447.864 776.962 447.584 779.012 447.234 779.012C446.884 779.012 446.604 776.962 446.604 774.432C446.604 771.902 446.954 773.092 447.304 773.092C447.654 773.092 447.864 771.902 447.864 774.432Z" fill="#FFD037"/>
<path d="M451.374 777.452C449.154 778.662 447.214 779.392 447.054 779.082C446.894 778.772 448.544 777.542 450.764 776.332C452.984 775.122 452.114 776.002 452.274 776.332C452.434 776.662 453.594 776.242 451.374 777.452Z" fill="#FFD037"/>
<path d="M408.644 765.272C408.644 765.272 403.144 772.462 411.174 783.272C419.204 794.082 425.824 803.272 423.174 810.042C423.174 810.042 411.064 789.892 401.174 789.612C391.284 789.332 397.774 777.392 408.644 765.272Z" fill="#5BA515"/>
<path opacity="0.1" d="M408.644 765.272C408.163 765.968 407.783 766.729 407.514 767.532C397.894 778.832 392.774 789.382 402.014 789.642C410.634 789.892 420.964 805.292 423.444 809.182C423.362 809.484 423.262 809.782 423.144 810.072C423.144 810.072 411.034 789.922 401.144 789.642C391.254 789.362 397.774 777.392 408.644 765.272Z" fill="#5BA515"/>
<path d="M398.424 774.432C398.424 776.962 398.714 779.012 399.064 779.012C399.414 779.012 399.694 776.962 399.694 774.432C399.694 771.902 399.344 773.092 398.994 773.092C398.644 773.092 398.424 771.902 398.424 774.432Z" fill="#FFD037"/>
<path d="M394.924 777.452C397.144 778.662 399.074 779.392 399.244 779.082C399.414 778.772 397.744 777.542 395.524 776.332C393.304 775.122 394.184 776.002 394.014 776.332C393.844 776.662 392.704 776.242 394.924 777.452Z" fill="#FFD037"/>
<path d="M400.174 809.132C400.174 809.132 415.534 808.652 420.174 805.362C424.814 802.072 443.804 798.122 444.944 803.412C446.084 808.702 468.034 829.702 450.694 829.842C433.354 829.982 410.394 827.142 405.774 824.332C401.154 821.522 400.174 809.132 400.174 809.132Z" fill="#A8A8A8"/>
<path opacity="0.2" d="M450.994 828.002C433.654 828.142 410.694 825.302 406.074 822.492C402.564 820.342 401.154 812.652 400.684 809.112H400.174C400.174 809.112 401.174 821.492 405.764 824.312C410.354 827.132 433.344 829.962 450.684 829.822C455.684 829.822 457.414 828.002 457.324 825.362C456.624 826.982 454.714 827.972 450.994 828.002Z" fill="black"/>
</g>
<path opacity="0.1" d="M879.554 150.402C814.834 148.152 753.194 127.262 694.334 104.402C635.474 81.542 577.174 56.212 514.004 44.102C473.374 36.312 426.904 35.212 394.174 56.992C362.664 77.992 352.484 114.142 347.014 147.722C342.894 172.982 340.474 199.572 351.754 223.212C359.594 239.632 373.494 253.432 383.114 269.162C416.584 323.882 392.924 391.362 356.664 444.792C339.664 469.862 319.914 493.792 306.784 520.452C293.654 547.112 287.584 577.702 299.074 604.922C310.454 631.922 337.584 652.162 366.974 666.412C426.664 695.362 496.974 703.642 565.584 708.332C717.414 718.722 870.044 714.222 1022.27 709.722C1078.61 708.052 1135.19 706.362 1190.61 697.652C1221.39 692.812 1253.16 685.142 1275.51 666.602C1303.87 643.072 1310.9 603.232 1291.89 573.722C1260.01 524.232 1171.89 511.942 1149.58 458.832C1137.32 429.592 1149.91 397.032 1167.74 369.912C1205.98 311.752 1270.07 260.722 1273.44 194.242C1275.76 148.582 1244.95 102.852 1197.31 81.242C1147.38 58.602 1078.13 61.442 1041.31 98.932C1003.36 137.532 936.704 152.382 879.554 150.402Z" fill="#5BA515"/>
<defs>
<linearGradient id="paint0_linear_0_1" x1="636.914" y1="652.782" x2="843.864" y2="652.782" gradientUnits="userSpaceOnUse">
<stop stop-color="#808080" stop-opacity="0.25"/>
<stop offset="0.54" stop-color="#808080" stop-opacity="0.12"/>
<stop offset="1" stop-color="#808080" stop-opacity="0.1"/>
</linearGradient>
<clipPath id="clip0_0_1">
<rect width="1010" height="840" fill="white"/>
</clipPath>
</defs>
</svg>
